<svg id="Layer_1" data-name="Layer 1" xmlns="http://www.w3.org/2000/svg" xmlns:xlink="http://www.w3.org/1999/xlink" viewBox="0 0 60 66"><defs><radialGradient id="radial-gradient" cx="-121.44" cy="904" r="1" gradientTransform="matrix(-17.55, 46.87, 81.75, 30.61, -75661.08, -21616.8)" gradientUnits="userSpaceOnUse"><stop offset="0.06" stop-color="#ae7fe2"/><stop offset="1" stop-color="#0078d4"/></radialGradient><linearGradient id="linear-gradient" x1="213.46" y1="546.1" x2="208.7" y2="554.33" gradientTransform="matrix(1.5, 0, 0, -1.5, 63.5, 1218.5)" gradientUnits="userSpaceOnUse"><stop offset="0" stop-color="#114a8b"/><stop offset="1" stop-color="#0078d4" stop-opacity="0"/></linearGradient><radialGradient id="radial-gradient-2" cx="-118.39" cy="879.48" r="1" gradientTransform="matrix(46.08, -6.78, -4.48, -30.44, 9756.62, 26370.32)" gradientUnits="userSpaceOnUse"><stop offset="0.13" stop-color="#d59dff"/><stop offset="1" stop-color="#5e438f"/></radialGradient><linearGradient id="linear-gradient-2" x1="225.16" y1="558.35" x2="220.06" y2="551.03" gradientTransform="matrix(1.5, 0, 0, -1.5, 63.5, 1218.5)" gradientUnits="userSpaceOnUse"><stop offset="0" stop-color="#493474"/><stop offset="1" stop-color="#8c66ba" stop-opacity="0"/></linearGradient><radialGradient id="radial-gradient-3" cx="-142.44" cy="902.46" r="1" gradientTransform="matrix(-36.24, -9.19, -15.47, 61, 9206.94, -55973.28)" gradientUnits="userSpaceOnUse"><stop offset="0.06" stop-color="#50e6ff"/><stop offset="1" stop-color="#436dcd"/></radialGradient><linearGradient id="linear-gradient-3" x1="206.64" y1="563.83" x2="214.15" y2="563.83" gradientTransform="matrix(1.5, 0, 0, -1.5, 63.5, 1218.5)" gradientUnits="userSpaceOnUse"><stop offset="0" stop-color="#2d3f80"/><stop offset="1" stop-color="#436dcd" stop-opacity="0"/></linearGradient><radialGradient id="radial-gradient-4" cx="-141.04" cy="902.78" r="0" xlink:href="#radial-gradient-3"/><linearGradient id="linear-gradient-4" x1="193.67" y1="549.34" x2="193.67" y2="549.34" xlink:href="#linear-gradient-3"/></defs><title>Microsoft 365 logo - Brandlogos.net</title><path d="M378.13,352.54l-.34.2a12,12,0,0,0-1.51,1.08l1-.68h8.25L387,364.5l-7.5,7.5-7.5,5.21v6a12,12,0,0,0,5.79,10.27l7.9,4.78L369,408h-3.22l-6-3.63A12,12,0,0,1,354,394.1V373.89a12,12,0,0,1,5.79-10.27l18-10.89Z" transform="translate(-354 -351)" style="fill:url(#radial-gradient)"/><path d="M378.13,352.54l-.34.2a12,12,0,0,0-1.51,1.08l1-.68h8.25L387,364.5l-7.5,7.5-7.5,5.21v6a12,12,0,0,0,5.79,10.27l7.9,4.78L369,408h-3.22l-6-3.63A12,12,0,0,1,354,394.1V373.89a12,12,0,0,1,5.79-10.27l18-10.89Z" transform="translate(-354 -351)" style="fill:url(#linear-gradient)"/><path d="M396,376.5v6.72a12,12,0,0,1-5.79,10.27l-18,10.9a12,12,0,0,1-12,.24l17.58,10.64a12,12,0,0,0,12.43,0l18-10.9A12,12,0,0,0,414,394.1v-4.85L412.5,387Z" transform="translate(-354 -351)" style="fill:url(#radial-gradient-2)"/><path d="M396,376.5v6.72a12,12,0,0,1-5.79,10.27l-18,10.9a12,12,0,0,1-12,.24l17.58,10.64a12,12,0,0,0,12.43,0l18-10.9A12,12,0,0,0,414,394.1v-4.85L412.5,387Z" transform="translate(-354 -351)" style="fill:url(#linear-gradient-2)"/><path d="M408.21,363.62l-18-10.89a12,12,0,0,0-12.06-.21l-.36.22A12,12,0,0,0,372,363v14.23l5.79-3.5a12,12,0,0,1,12.42,0l18,10.89A12,12,0,0,1,414,394.5q0-.2,0-.39V373.89A12,12,0,0,0,408.21,363.62Z" transform="translate(-354 -351)" style="fill:url(#radial-gradient-3)"/><path d="M408.21,363.62l-18-10.89a12,12,0,0,0-12.06-.21l-.36.22A12,12,0,0,0,372,363v14.23l5.79-3.5a12,12,0,0,1,12.42,0l18,10.89A12,12,0,0,1,414,394.5q0-.2,0-.39V373.89A12,12,0,0,0,408.21,363.62Z" transform="translate(-354 -351)" style="fill:url(#linear-gradient-3)"/><path d="M354,394.5Z" transform="translate(-354 -351)" style="fill:url(#radial-gradient-4)"/><path d="M354,394.5Z" transform="translate(-354 -351)" style="fill:url(#linear-gradient-4)"/></svg>